<?xml version="1.0" encoding="UTF-8"?>
<svg width="55px" height="18px" viewBox="0 0 55 18" version="1.1" xmlns="http://www.w3.org/2000/svg" xmlns:xlink="http://www.w3.org/1999/xlink">
    <!-- Generator: Sketch 50.2 (55047) - http://www.bohemiancoding.com/sketch -->
    <title>eatfit</title>
    <desc>Created with Sketch.</desc>
    <defs></defs>
    <g id="Page-1" stroke="none" stroke-width="1" fill="none" fill-rule="evenodd">
        <g id="Home-Page" transform="translate(-523.000000, -32.000000)" fill="#FFFFFF">
            <g id="Group-37" transform="translate(48.000000, 13.000000)">
                <g id="Group" transform="translate(475.000000, 19.000000)">
                    <g id="eatfit">
                        <g id="Page-1">
                            <path d="M41.8282221,0.0464874146 C38.3247703,-0.303116488 37.1824612,1.3483879 37.2482979,4.03774595 L37.2482979,4.86402498 C37.2241435,4.86402498 35.8862481,4.86360351 35.823404,4.86360351 C35.4585235,4.86360351 35.3210787,5.03577132 35.3210787,5.29159961 L35.3210787,6.6792679 C35.3210787,6.97850693 35.4704938,7.07291473 35.7368331,7.07291473 C35.8787667,7.07291473 37.2482979,7.07017522 37.2482979,7.07017522 C37.2482979,8.33330107 37.2480841,9.69568156 37.2482979,10.886105 C37.2482979,12.5776484 37.2504354,15.960946 37.2504354,16.3090747 C37.2504354,16.7455001 37.488559,16.7922825 37.7262551,16.7922825 C38.0691188,16.7922825 39.0472637,16.7931255 39.3901275,16.7931255 C39.8101569,16.7931255 39.8742836,16.5187528 39.8742836,16.2281538 L39.8742836,7.07017522 L41.8538728,7.07017522 C42.0819498,7.07017522 42.2343575,6.96649522 42.2343575,6.64238985 L42.2343575,5.25451083 C42.2343575,4.9478962 42.0355649,4.86402498 41.7987239,4.86402498 L39.8742836,4.86402498 L39.8742836,3.78212839 C39.8742836,3.40428644 39.7500916,2.16708059 41.5315296,2.28382595 C41.6604241,2.29225522 41.7743558,2.30911376 41.8949138,2.30911376 C42.1300448,2.30911376 42.3042555,2.16708059 42.3014767,1.89439376 L42.3305474,0.552875707 C42.3305474,0.314538146 42.2473966,0.0882122927 41.8282221,0.0464874146" id="Fill-1"></path>
                            <path d="M49.2167647,0.604589268 C49.2167647,0.168585366 49.5087547,0.0463609756 49.8067298,0.0472039024 C50.1493798,0.0480468293 51.0238533,0.0463609756 51.3665033,0.0463609756 C51.8410404,0.0463609756 51.905167,0.42947122 51.905167,0.640835122 L51.905167,4.86410927 L54.2992281,4.86410927 C54.5899355,4.86347707 54.7203263,5.0503961 54.7203263,5.2916839 L54.7203263,6.64774244 C54.7203263,6.95414634 54.5172586,7.07004878 54.2327501,7.07004878 L51.905167,7.07004878 L51.905167,12.6099746 C51.905167,13.1203668 51.9083734,14.3853893 53.2398561,14.399719 C53.3689644,14.4009834 53.7458152,14.4062517 53.9140407,14.4089912 C54.2536982,14.4148917 54.3917842,14.71392 54.4385966,14.89536 L54.7720551,16.4138927 C54.8073248,16.6640312 54.6157999,16.7803551 54.413801,16.7932098 C54.412946,16.7934205 54.4116634,16.7934205 54.4103809,16.7934205 C53.552794,16.8281912 52.856165,16.8191298 52.2779565,16.7295688 C50.2746405,16.419161 49.2295901,15.2342166 49.2295901,12.9616859 C49.2295901,12.9616859 49.2167647,0.95292878 49.2167647,0.604589268" id="Fill-3"></path>
                            <path d="M24.8732895,0.604589268 C24.8732895,0.168585366 25.1652794,0.0463609756 25.4632545,0.0472039024 C25.8059045,0.0480468293 26.6803781,0.0463609756 27.0230281,0.0463609756 C27.4975652,0.0463609756 27.5616918,0.42947122 27.5616918,0.640835122 L27.5616918,4.86410927 L29.9557528,4.86410927 C30.2464602,4.86347707 30.3768511,5.0503961 30.3768511,5.2916839 L30.3768511,6.64774244 C30.3768511,6.95414634 30.1737834,7.07004878 29.8892749,7.07004878 L27.5616918,7.07004878 L27.5616918,12.6099746 C27.5616918,13.1203668 27.5648981,14.3853893 28.8963808,14.399719 C29.0254891,14.4009834 29.40234,14.4062517 29.5705655,14.4089912 C29.9102229,14.4148917 30.0483089,14.71392 30.0949076,14.89536 L30.4285799,16.4138927 C30.4638495,16.6640312 30.2723246,16.7803551 30.0703257,16.7932098 C30.0694707,16.7934205 30.0681882,16.7934205 30.0669057,16.7934205 C29.2093188,16.8281912 28.5126898,16.8191298 27.9344813,16.7295688 C25.9311652,16.419161 24.8861148,15.2342166 24.8861148,12.9616859 C24.8861148,12.9616859 24.8732895,0.95292878 24.8732895,0.604589268" id="Fill-6"></path>
                            <path d="M46.1462318,4.86398283 L44.5853895,4.86398283 C44.2919033,4.86398283 44.0537797,5.0239282 44.0537797,5.35857015 L44.0537797,16.2679399 C44.0537797,16.5574853 44.2919033,16.7924511 44.5853895,16.7924511 L46.1462318,16.7924511 C46.4397181,16.7924511 46.6778416,16.5574853 46.6778416,16.2679399 L46.6778416,5.38849405 C46.6778416,5.03214673 46.4397181,4.86398283 46.1462318,4.86398283" id="Fill-8"></path>
                            <path d="M44.8119276,3.07668293 L45.9198221,3.07668293 C46.3475467,3.07668293 46.6940443,2.73445463 46.6940443,2.31278049 L46.6940443,0.810474146 C46.6940443,0.388378537 46.3475467,0.0465717073 45.9198221,0.0465717073 L44.8119276,0.0465717073 C44.3842029,0.0465717073 44.0374916,0.388378537 44.0374916,0.810474146 L44.0374916,2.31278049 C44.0374916,2.73445463 44.3842029,3.07668293 44.8119276,3.07668293" id="Fill-10"></path>
                            <path d="M33.1829043,16.7931676 L34.2907988,16.7931676 C34.7185235,16.7931676 35.0650211,16.45115 35.0650211,16.0292652 L35.0650211,14.5269588 C35.0650211,14.1048632 34.7185235,13.7630564 34.2907988,13.7630564 L33.1829043,13.7630564 C32.7551797,13.7630564 32.4086821,14.1048632 32.4086821,14.5269588 L32.4086821,16.0292652 C32.4086821,16.45115 32.7551797,16.7931676 33.1829043,16.7931676" id="Fill-12"></path>
                            <path d="M17.0756831,14.9655126 C18.0341625,14.9655126 18.9430507,14.3891614 19.4842795,13.8703399 C19.7692155,13.5970209 19.8679705,13.3397175 19.8679705,12.9620862 L19.8679705,11.8030619 C19.8679705,11.7139223 19.8147454,11.6338443 19.7320221,11.5975984 C19.3998461,11.4511399 18.5845828,11.1864609 17.6660756,11.1864609 C16.256786,11.1864609 15.2369587,11.8506872 15.1967727,13.0859965 C15.1638543,14.0983516 15.8230761,14.9655126 17.0756831,14.9655126 M17.4670693,9.00770576 C18.7196762,9.00770576 19.8940487,9.36805698 19.8940487,9.36805698 C19.9271808,7.71908137 19.3205428,7.1052199 17.8253234,6.98152039 C16.4470283,6.8673038 14.7728956,7.44323356 14.1465922,7.62340917 C13.7812841,7.70053698 13.5465806,7.46894283 13.4681324,7.13409015 L13.2332151,6.15587356 C13.1549806,5.74368234 13.3377415,5.56350673 13.6246013,5.46066966 C13.8334404,5.38312039 16.0274264,4.48666771 18.2434291,4.57812527 C22.0072351,4.73280234 22.4514189,6.93199844 22.4514189,9.89320039 L22.4514189,16.2271633 C22.4514189,16.5363067 22.1645591,16.7938209 21.8772717,16.7938209 L21.016051,16.7938209 C20.7813476,16.7938209 20.650743,16.6907731 20.5201384,16.3818404 L20.2563642,15.6474404 C19.5800419,16.2191555 18.3804463,17.077255 16.5276141,17.077255 C14.2573175,17.077255 12.6394025,15.5835887 12.6394025,13.1117058 C12.6394025,10.9230462 14.3616301,9.00770576 17.4670693,9.00770576" id="Fill-14"></path>
                            <path d="M2.6026436,9.46200117 C2.79438224,7.87266263 4.23338393,6.73176117 5.95048145,6.82448312 C7.49315453,6.90772215 8.66132806,8.1010958 8.67308461,9.46200117 L2.6026436,9.46200117 Z M11.1295622,8.70147044 C10.0676252,4.30982166 4.74511447,3.55413776 1.97740891,5.87302946 C-0.128296021,7.66467044 -0.127013488,10.5902587 0.0965747121,12.2733729 C0.517886703,14.6556948 1.7337277,16.1426178 4.04570664,16.7897748 C4.74319067,16.9849124 5.77776705,17.0966002 6.79930434,16.9967134 C8.88064116,16.7925143 10.2828769,15.6341221 10.3681653,15.5664773 C10.5906848,15.3900948 10.5464374,15.134688 10.4000149,14.9039368 C10.3324682,14.7973065 9.81753129,13.885049 9.72604396,13.7390119 C9.58453785,13.5143719 9.38766908,13.4142743 9.05356931,13.6100441 C8.92809487,13.683168 8.5959189,13.8861026 8.41315799,13.9904148 C6.92306875,14.8430353 4.61472365,14.9816968 3.37686584,13.6378607 C2.92776564,13.1504382 2.6026436,12.427207 2.60499491,11.6980753 L10.7238544,11.6980753 C11.0278146,11.6980753 11.2740609,11.4551017 11.2740609,11.1552304 L11.2740609,10.4813104 L11.2721371,10.4760421 C11.2794048,9.881568 11.2674345,9.27192117 11.1295622,8.70147044 L11.1295622,8.70147044 Z" id="Fill-17"></path>
                        </g>
                    </g>
                </g>
            </g>
        </g>
    </g>
</svg>