<?xml version="1.0" encoding="UTF-8"?>
<svg width="71px" height="18px" viewBox="0 0 71 18" version="1.1" xmlns="http://www.w3.org/2000/svg" xmlns:xlink="http://www.w3.org/1999/xlink">
    <!-- Generator: Sketch 50.2 (55047) - http://www.bohemiancoding.com/sketch -->
    <title>Care</title>
    <desc>Created with Sketch.</desc>
    <defs></defs>
    <g id="Page-1" stroke="none" stroke-width="1" fill="none" fill-rule="evenodd">
        <g id="Home-Page" transform="translate(-925.000000, -32.000000)" fill="#FFFFFF">
            <g id="Group-37" transform="translate(48.000000, 13.000000)">
                <g id="Group" transform="translate(475.000000, 19.000000)">
                    <g id="Care" transform="translate(402.000000, 0.000000)">
                        <path d="M17.6452922,15.615186 C18.6110013,15.615186 19.5267451,15.0344875 20.0720563,14.5117526 C20.3591415,14.236372 20.4586414,13.9771278 20.4586414,13.5966481 L20.4586414,12.4288814 C20.4586414,12.3390695 20.4050149,12.2583875 20.3216675,12.2218682 C19.986986,12.074305 19.1655733,11.8076295 18.240138,11.8076295 C16.8202183,11.8076295 15.7926986,12.476866 15.7522095,13.721493 C15.7190429,14.7414842 16.3832371,15.615186 17.6452922,15.615186 M18.0396306,9.61244038 C19.3016858,9.61244038 20.4849163,9.97550967 20.4849163,9.97550967 C20.5182983,8.3140961 19.9070846,7.69560438 18.400587,7.57097182 C17.0118956,7.45589371 15.3251352,8.03616762 14.6941076,8.21770226 C14.3260441,8.29541183 14.0895703,8.06207081 14.0105303,7.72469238 L13.7738411,6.73909726 C13.6950165,6.32379695 13.879156,6.14226231 14.1681795,6.03864955 C14.3785938,5.96051534 16.5891287,5.05730086 18.8218464,5.14944827 C22.6140421,5.30529204 23.0615764,7.52107633 23.0615764,10.5046142 L23.0615764,16.8863532 C23.0615764,17.1978284 22.7725528,17.4572849 22.4830985,17.4572849 L21.6153818,17.4572849 C21.3789079,17.4572849 21.2473182,17.3534599 21.1157285,17.0421969 L20.8499647,16.3022575 C20.1685411,16.878285 18.9598971,17.742857 17.0930893,17.742857 C14.8056681,17.742857 13.1755495,16.2379241 13.1755495,13.7473962 C13.1755495,11.542228 14.9107676,9.61244038 18.0396306,9.61244038" id="Fill-14"></path>
                        <path d="M10.4317159,13.7523037 C10.1546337,13.5450581 9.91405668,13.6290965 9.74470385,13.8230396 C9.69457898,13.8804729 8.21483491,15.6654459 5.82636834,15.3167285 C3.82963484,15.0253388 2.69440154,13.4968098 2.6562218,11.5859903 C2.62194934,9.87439263 3.5929651,8.53062164 5.00092679,8.00168602 C5.87493029,7.67334474 7.42690329,7.58930627 8.61594547,8.34079604 C8.79333614,8.45291773 9.2136482,8.76172745 9.38311267,8.90520519 C9.56362917,9.05818478 9.75877007,9.21580971 10.0734738,9.00391873 C10.2568929,8.88039484 10.8463345,8.40625315 11.2145123,8.09142559 C11.6526862,7.71663089 11.373148,7.46113704 11.0271859,7.0860256 C9.62145696,5.54968404 7.45012371,5.06033941 5.55609596,5.27740361 C2.54413858,5.62263704 0.355055103,7.72813867 0.0400164184,10.7380041 C-0.248341102,13.4930091 1.02308894,16.225632 3.81009843,17.3394585 C4.78223056,17.7279781 5.63279035,17.8193013 6.44505877,17.8281697 C8.95342312,17.8556195 10.6639202,16.3927588 11.4297478,15.4690746 C11.6651895,15.1852864 11.7434468,14.9682222 11.5202851,14.7363773 C11.3155434,14.5389503 10.489767,13.795801 10.4317159,13.7523037" id="Fill-2"></path>
                        <path d="M32.6201659,5.39964206 C31.993778,5.1179595 31.1868538,5.1068797 30.6150289,5.18347946 C29.1894338,5.37460598 28.3028389,6.07891894 27.6383003,7.02858551 C27.50461,6.60904468 27.2342947,5.7903115 27.2024482,5.71499017 C27.1212558,5.52215907 27.0287595,5.42265395 26.7464882,5.42265395 C26.7257282,5.42265395 25.9120651,5.4210559 25.8626106,5.4210559 C25.4754522,5.4210559 25.515994,5.76591463 25.515994,5.88789895 C25.515994,6.80720261 25.5208851,8.12655092 25.5208851,9.04596112 C25.5208851,11.6756021 25.5190374,14.6392351 25.5222981,17.2688761 C25.5222981,17.6299284 25.6771832,17.7428571 26.0051049,17.7428571 C26.3428087,17.7428571 27.5487387,17.7423245 27.7688385,17.7423245 C28.1602359,17.7423245 28.2205596,17.5005931 28.2205596,17.2288184 C28.2214291,16.4087003 28.2347981,11.6391666 28.2347981,11.1816988 C28.2347981,8.61320976 29.5845267,7.53218365 31.1217477,7.63648291 C31.4530387,7.65896212 31.6536829,7.72224481 31.8248717,7.45430546 C31.8611746,7.39762803 32.6647293,6.21251574 32.8178754,5.9542712 C32.8679821,5.88044139 32.979608,5.56125797 32.6201659,5.39964206" id="Fill-3"></path>
                        <path d="M35.4422686,10.0760253 C35.6315351,8.46680952 37.0512919,7.31170008 38.7454078,7.40548745 C40.2677914,7.48977075 41.4198933,8.69814473 41.431239,10.0760253 L35.4422686,10.0760253 Z M43.8550882,9.30588269 C42.8071602,4.85923356 37.5561745,4.09399967 34.8254764,6.44202592 C32.7478766,8.25615349 32.7490112,11.2182886 32.9697362,12.922545 C33.3852974,15.3346975 34.584948,16.8403085 36.8660479,17.4955668 C37.5542148,17.6932723 38.5748101,17.8063811 39.582925,17.7049696 C41.6364926,17.4982823 43.0196338,16.325418 43.1042106,16.2569052 C43.3228728,16.0782078 43.2795529,15.8198226 43.1351534,15.5860853 C43.0691422,15.4783029 42.5606496,14.5543198 42.4698841,14.4065368 C42.3306417,14.1791703 42.1367338,14.0777588 41.8066777,14.2759865 C41.6829067,14.3502435 41.3549135,14.5554686 41.1754455,14.6612666 C39.7046332,15.52457 37.4273495,15.6649377 36.2061421,14.3041853 C35.763145,13.8104962 35.4422686,13.0784743 35.4446409,12.3400815 L43.4548952,12.3400815 C43.7550399,12.3400815 43.9974248,12.0939158 43.9974248,11.7904124 L43.9974248,11.1079996 L43.995362,11.1026732 C44.002582,10.5007839 43.9912363,9.88354184 43.8550882,9.30588269 L43.8550882,9.30588269 Z" id="Fill-4"></path>
                        <path d="M56.2651437,0.390995864 C52.5869871,0.0289038266 51.3872781,1.73997039 51.4564287,4.52651871 L51.4564287,5.38280011 C51.4311833,5.38280011 50.0262175,5.38226574 49.9603597,5.38226574 C49.577287,5.38226574 49.4334975,5.56053301 49.4334975,5.82568955 L49.4334975,7.26337021 C49.4334975,7.57352106 49.5904586,7.67131156 49.8692565,7.67131156 C50.0185341,7.67131156 51.4564287,7.66831907 51.4564287,7.66831907 L51.4564287,11.6223684 C51.4564287,13.3749024 51.458624,16.8803979 51.458624,17.2413143 C51.458624,17.6932881 51.7088835,17.7420231 51.9580454,17.7420231 C52.3180679,17.7420231 53.3454491,17.7428781 53.7054716,17.7428781 C54.1467187,17.7428781 54.2136741,17.4585909 54.2136741,17.1573107 L54.2136741,7.66831907 L56.2925844,7.66831907 C56.5318676,7.66831907 56.6921215,7.5610167 56.6921215,7.22532276 L56.6921215,5.78710772 C56.6921215,5.46968938 56.4835719,5.38258636 56.23441,5.38258636 L54.2136741,5.38258636 L54.2136741,4.26136217 C54.2136741,3.87009329 54.0841538,2.58823618 55.9545145,2.70921853 C56.0895229,2.71798227 56.2091645,2.73540287 56.3353919,2.73540287 C56.5823586,2.73540287 56.7656627,2.58812931 56.7623698,2.30565904 L56.7931034,0.915537694 C56.7931034,0.668763634 56.7052931,0.434280184 56.2651437,0.390995864" id="Fill-5"></path>
                        <path d="M64.1527094,1.179248 C64.1527094,0.726640248 64.4744623,0.6 64.8031346,0.600749351 C65.1813961,0.601712801 66.1455015,0.6 66.523763,0.6 C67.0473322,0.6 67.1188329,0.997369907 67.1188329,1.21692963 L67.1188329,5.59966706 L69.7597438,5.59966706 C70.0803435,5.59923886 70.2233447,5.79332066 70.2233447,6.04349671 L70.2233447,7.45109825 C70.2233447,7.76903699 69.9996169,7.88914718 69.6859367,7.88914718 L67.1188329,7.88914718 L67.1188329,13.6388071 C67.1188329,14.1684909 67.1222926,15.4812461 68.5903623,15.4963402 C68.7333636,15.4977318 69.1485286,15.5029773 69.3341996,15.5059747 C69.7090014,15.5119695 69.8612286,15.8220936 69.9131242,16.0105017 L70.2810066,17.5866001 C70.3202166,17.8464106 70.1080211,17.966949 69.8854465,17.9803303 C69.8842933,17.9803303 69.8831401,17.9804373 69.8819868,17.9805444 C68.9363331,18.0165132 68.1671246,18.0070928 67.529385,17.9141733 C65.3197844,17.5920596 64.1665482,16.3623753 64.1665482,14.0037409 C64.1665482,14.0037409 64.1527094,1.54075613 64.1527094,1.179248" id="Fill-6"></path>
                        <path d="M60.8891005,5.14285714 L59.2066076,5.14285714 C58.8899429,5.14285714 58.6330049,5.31184499 58.6330049,5.66518323 L58.6330049,17.1888254 C58.6330049,17.4947686 58.8899429,17.7428571 59.2066076,17.7428571 L60.8891005,17.7428571 C61.2057653,17.7428571 61.4615763,17.4947686 61.4615763,17.1888254 L61.4615763,5.69699783 C61.4615763,5.32056132 61.2057653,5.14285714 60.8891005,5.14285714" id="Fill-7"></path>
                        <path d="M59.4567526,3.42857139 L60.6367155,3.42857139 C61.092003,3.42857139 61.4615763,3.10928954 61.4615763,2.71538664 L61.4615763,1.31308846 C61.4615763,0.919281844 61.092003,0.6 60.6367155,0.6 L59.4567526,0.6 C59.001465,0.6 58.6330049,0.919281844 58.6330049,1.31308846 L58.6330049,2.71538664 C58.6330049,3.10928954 59.001465,3.42857139 59.4567526,3.42857139" id="Fill-8"></path>
                        <path d="M47.1907427,17.2285714 L48.3707056,17.2285714 C48.8259932,17.2285714 49.1955665,16.9093004 49.1955665,16.5154109 L49.1955665,15.1131605 C49.1955665,14.719271 48.8259932,14.4 48.3707056,14.4 L47.1907427,14.4 C46.7354552,14.4 46.3669951,14.719271 46.3669951,15.1131605 L46.3669951,16.5154109 C46.3669951,16.9093004 46.7354552,17.2285714 47.1907427,17.2285714" id="Fill-9"></path>
                    </g>
                </g>
            </g>
        </g>
    </g>
</svg>