<?xml version="1.0" encoding="UTF-8"?>
<svg width="64px" height="18px" viewBox="0 0 64 18" version="1.1" xmlns="http://www.w3.org/2000/svg" xmlns:xlink="http://www.w3.org/1999/xlink">
    <!-- Generator: Sketch 50.2 (55047) - http://www.bohemiancoding.com/sketch -->
    <title>cultfit</title>
    <desc>Created with Sketch.</desc>
    <defs></defs>
    <g id="Page-1" stroke="none" stroke-width="1" fill="none" fill-rule="evenodd">
        <g id="Home-Page" transform="translate(-652.000000, -32.000000)" fill="#FFFFFF">
            <g id="Group-37" transform="translate(48.000000, 13.000000)">
                <g id="Group" transform="translate(475.000000, 19.000000)">
                    <g id="cultfit" transform="translate(129.000000, 0.000000)">
                        <g id="Page-1">
                            <g id="Group-21">
                                <path d="M23.5935057,5.24271259 C23.5935057,5.24271259 21.8230467,5.24336572 21.7758555,5.24336572 C21.2858803,5.24271259 21.3405227,5.71252638 21.3405227,5.71252638 C21.3402969,6.12660693 21.3122983,10.5889671 21.2922025,12.2616174 C21.2526884,13.4990695 20.6308488,14.5451562 19.5612577,15.0247669 C18.2150676,15.6282534 16.1090771,15.3966121 15.9851156,13.301826 C15.9647941,12.9780943 15.9209898,5.8305241 15.9209898,5.73364405 C15.9209898,5.48480385 15.8308976,5.24358342 15.4319177,5.24358342 C15.1270944,5.24358342 13.9163813,5.24336572 13.7011987,5.24336572 C13.2313192,5.24336572 13.1825474,5.54271417 13.1825474,5.82355744 C13.1825474,7.8286478 13.1694513,10.1446251 13.1888697,12.1499332 C13.1954177,12.8278758 13.1875149,13.5269361 13.2877679,14.1974766 C13.5743018,16.1133067 14.7333078,17.223835 16.5563771,17.6631697 C18.5099559,18.1342897 20.7699386,17.4193368 21.8794955,16.1111296 C21.9102036,16.1877628 22.3021838,17.1580872 22.3475686,17.2547496 C22.4552729,17.4835606 22.5453651,17.5669428 22.7704828,17.5669428 L23.7330471,17.5669428 C24.0606757,17.5669428 24.0511923,17.3218036 24.054805,17.1530799 C24.0857389,13.5474006 24.0861905,9.28881512 24.0861905,5.68270039 C24.0861905,5.41491959 23.9473266,5.24271259 23.5935057,5.24271259" id="Fill-1"></path>
                                <path d="M10.3187888,13.6241645 C10.0448994,13.4149471 9.80668558,13.4998532 9.63914565,13.6955727 C9.58969654,13.753483 8.126093,15.5550164 5.76314777,15.2032003 C3.78834424,14.9090769 2.66546544,13.3661805 2.62753187,11.4375057 C2.59366261,9.70999295 3.55419477,8.35367233 4.94689866,7.8198524 C5.81124212,7.48828317 7.34687428,7.40337706 8.52304071,8.16208932 C8.69803187,8.27529746 9.11439795,8.58683756 9.28148629,8.73161336 C9.46009018,8.88618601 9.65337074,9.04511283 9.96474212,8.83132361 C10.1458298,8.70679465 10.7288326,8.22827254 11.0932658,7.9102012 C11.5270181,7.53204247 11.2501934,7.27405853 10.9078881,6.89546438 C9.51744212,5.34494825 7.36945378,4.85096888 5.49625802,5.06998309 C2.5166665,5.41853354 0.351291943,7.54358099 0.0396947703,10.5814779 C-0.245484382,13.3624795 1.01196827,16.1206217 3.76892587,17.2448656 C4.73081279,17.6369577 5.57212516,17.7290481 6.37527816,17.7379742 C8.85654,17.7656231 10.5488739,16.2891277 11.3061905,15.3569022 C11.5389852,15.0706162 11.6162071,14.8513843 11.3958312,14.6173482 C11.1930672,14.4181454 10.3763665,13.6679238 10.3187888,13.6241645" id="Fill-3"></path>
                                <path d="M50.0970807,0.265734342 C46.3962998,-0.0954431719 45.1898768,1.61073415 45.2589701,4.3891232 L45.2589701,5.24275613 C45.233681,5.24275613 43.820204,5.24232072 43.7538202,5.24232072 C43.3683881,5.24232072 43.2236535,5.42018812 43.2236535,5.68448559 L43.2236535,7.11809254 C43.2236535,7.42723785 43.3812584,7.52477102 43.6628248,7.52477102 C43.8127528,7.52477102 45.2589701,7.52172311 45.2589701,7.52172311 C45.2589701,8.82688236 45.2587443,10.2343644 45.2589701,11.4641967 C45.2589701,13.2117385 45.2614538,16.7072576 45.2614538,17.0669111 C45.2614538,17.5173489 45.5129895,17.5661155 45.7640736,17.5661155 C46.1262489,17.5661155 47.1592612,17.5669863 47.5218881,17.5669863 C47.9655754,17.5669863 48.0330881,17.2833129 48.0330881,16.9828759 L48.0330881,7.52172311 L50.1239503,7.52172311 C50.3650994,7.52172311 50.5260913,7.4148285 50.5260913,7.08021136 L50.5260913,5.64616899 C50.5260913,5.32962161 50.3163277,5.24275613 50.065921,5.24275613 L48.0330881,5.24275613 L48.0330881,4.12504344 C48.0330881,3.73469306 47.9019012,2.4565296 49.7836771,2.57713981 C49.9200573,2.58584813 50.0401803,2.60326476 50.1675287,2.60326476 C50.4159033,2.60326476 50.5999263,2.4565296 50.5969909,2.17481549 L50.627699,0.788886582 C50.627699,0.542658874 50.5400906,0.308840519 50.0970807,0.265734342" id="Fill-5"></path>
                                <path d="M57.901777,0.842312117 C57.901777,0.391656629 58.210213,0.265603717 58.5249713,0.266474549 C58.8869208,0.267345381 59.8106484,0.265603717 60.1728236,0.265603717 C60.6738629,0.265603717 60.7416014,0.661396798 60.7416014,0.879757887 L60.7416014,5.24284322 L63.270506,5.24284322 C63.5775872,5.24219009 63.7153222,5.43529706 63.7153222,5.68435497 L63.7153222,7.08552343 C63.7153222,7.40207081 63.5005911,7.5218102 63.2002837,7.5218102 L60.7416014,7.5218102 L60.7416014,13.2453526 C60.7416014,13.7726413 60.7449883,15.0793245 62.1514657,15.0943463 C62.2878459,15.0956526 62.6859226,15.1006599 62.8638491,15.1039255 C63.2221858,15.1095859 63.368501,15.4185135 63.4177243,15.6059601 L63.7699646,17.1749814 C63.8072208,17.4336184 63.6049084,17.5535755 63.3917579,17.5668557 C63.3908547,17.5670734 63.3892742,17.5670734 63.3879194,17.5670734 C62.4820296,17.6029952 61.7461636,17.5936338 61.135388,17.5011079 C59.0192367,17.1804241 57.9153247,15.9562522 57.9153247,13.6084895 C57.9153247,13.6084895 57.901777,1.20218338 57.901777,0.842312117" id="Fill-8"></path>
                                <path d="M32.2639003,0.842312117 C32.2639003,0.391656629 32.5723363,0.265603717 32.8870946,0.266474549 C33.2490441,0.267345381 34.1727717,0.265603717 34.5347211,0.265603717 C35.0359861,0.265603717 35.1037247,0.661396798 35.1037247,0.879757887 L35.1037247,5.24284322 L37.6326293,5.24284322 C37.9397105,5.24219009 38.0774455,5.43529706 38.0774455,5.68435497 L38.0774455,7.08552343 C38.0774455,7.40207081 37.8629402,7.5218102 37.562407,7.5218102 L35.1037247,7.5218102 L35.1037247,13.2453526 C35.1037247,13.7726413 35.1071116,15.0793245 36.513589,15.0943463 C36.6499692,15.0956526 37.0480459,15.1006599 37.2259724,15.1039255 C37.5845349,15.1095859 37.7306243,15.4185135 37.7798476,15.6059601 L38.1320879,17.1749814 C38.1693441,17.4336184 37.9670317,17.5535755 37.7538812,17.5668557 C37.752978,17.5670734 37.7513975,17.5670734 37.7500427,17.5670734 C36.8443787,17.6029952 36.1082869,17.5936338 35.4975112,17.5011079 C33.38136,17.1804241 32.277448,15.9562522 32.277448,13.6084895 C32.277448,13.6084895 32.2639003,1.20218338 32.2639003,0.842312117" id="Fill-10"></path>
                                <path d="M54.6581859,5.24271259 L53.0096562,5.24271259 C52.6994138,5.24271259 52.4481039,5.40795294 52.4481039,5.75367319 L52.4481039,17.0241968 C52.4481039,17.3235453 52.6994138,17.566072 53.0096562,17.566072 L54.6581859,17.566072 C54.9684283,17.566072 55.2197382,17.3235453 55.2197382,17.0241968 L55.2197382,5.78458772 C55.2197382,5.41644355 54.9684283,5.24271259 54.6581859,5.24271259" id="Fill-12"></path>
                                <path d="M29.0088388,0.265734342 L27.3600833,0.265734342 C27.0500667,0.265734342 26.798531,0.430974688 26.798531,0.776694936 L26.798531,17.0242404 C26.798531,17.3235888 27.0500667,17.5661155 27.3600833,17.5661155 L29.0088388,17.5661155 C29.3188554,17.5661155 29.5701653,17.3235888 29.5701653,17.0242404 L29.5701653,0.807609467 C29.5701653,0.439465298 29.3188554,0.265734342 29.0088388,0.265734342" id="Fill-14"></path>
                                <path d="M53.2489538,3.39624426 L54.4192496,3.39624426 C54.8710655,3.39624426 55.2370793,3.04268652 55.2370793,2.60705288 L55.2370793,1.0550128 C55.2370793,0.618943745 54.8710655,0.265821425 54.4192496,0.265821425 L53.2489538,0.265821425 C52.7969121,0.265821425 52.4311241,0.618943745 52.4311241,1.0550128 L52.4311241,2.60705288 C52.4311241,3.04268652 52.7969121,3.39624426 53.2489538,3.39624426" id="Fill-16"></path>
                                <path d="M40.9649578,17.566921 L42.1352536,17.566921 C42.5870695,17.566921 42.9530833,17.2133633 42.9530833,16.7775119 L42.9530833,15.2256896 C42.9530833,14.7896205 42.5870695,14.4362805 42.1352536,14.4362805 L40.9649578,14.4362805 C40.5131419,14.4362805 40.1471281,14.7896205 40.1471281,15.2256896 L40.1471281,16.7775119 C40.1471281,17.2133633 40.5131419,17.566921 40.9649578,17.566921" id="Fill-18"></path>
                            </g>
                        </g>
                    </g>
                </g>
            </g>
        </g>
    </g>
</svg>