<?xml version="1.0" encoding="UTF-8"?>
<svg width="70px" height="18px" viewBox="0 0 70 18" version="1.1" xmlns="http://www.w3.org/2000/svg" xmlns:xlink="http://www.w3.org/1999/xlink">
    <!-- Generator: Sketch 50.2 (55047) - http://www.bohemiancoding.com/sketch -->
    <title>Mind</title>
    <desc>Created with Sketch.</desc>
    <defs></defs>
    <g id="Page-1" stroke="none" stroke-width="1" fill="none" fill-rule="evenodd">
        <g id="Home-Page" transform="translate(-790.000000, -32.000000)">
            <g id="Group-37" transform="translate(48.000000, 13.000000)">
                <g id="Group" transform="translate(475.000000, 19.000000)">
                    <g id="Mind" transform="translate(267.000000, 0.000000)">
                        <g id="Page-1">
                            <path d="M60.4257529,3.17357169 L61.4640711,3.17357169 C61.8652122,3.17357169 62.1900122,2.84340029 62.1900122,2.43612787 L62.1900122,0.985855589 C62.1900122,0.578379733 61.8652122,0.248411766 61.4640711,0.248411766 L60.4257529,0.248411766 C60.0248122,0.248411766 59.7000122,0.578379733 59.7000122,0.985855589 L59.7000122,2.43612787 C59.7000122,2.84340029 60.0248122,3.17357169 60.4257529,3.17357169" id="Fill-8" fill="#FFFFFF"></path>
                            <path d="M20.1257067,3.17357169 L21.1641417,3.17357169 C21.5650502,3.17357169 21.8900244,2.84340029 21.8900244,2.43612787 L21.8900244,0.985855589 C21.8900244,0.578379733 21.5650502,0.248411766 21.1641417,0.248411766 L20.1257067,0.248411766 C19.7247983,0.248411766 19.4000244,0.578379733 19.4000244,0.985855589 L19.4000244,2.43612787 C19.4000244,2.84340029 19.7247983,3.17357169 20.1257067,3.17357169" id="Fill-12" fill="#FFFFFF"></path>
                            <g id="Group-18" transform="translate(0.000000, 4.413550)"></g>
                            <g id="Group-16" fill="#FFFFFF">
                                <path d="M57.5764893,0.262830363 C54.2491771,-0.0943018629 53.1640295,1.59378334 53.22656,4.34249524 L53.22656,5.18729174 C53.2036186,5.18729174 51.9329098,5.18686094 51.8732216,5.18686094 C51.5266646,5.18686094 51.3961221,5.36262686 51.3961221,5.62433715 L51.3961221,7.04252688 C51.3961221,7.34860945 51.5380338,7.44510838 51.790998,7.44510838 C51.9260071,7.44510838 53.22656,7.44209279 53.22656,7.44209279 C53.22656,8.73319687 53.226357,10.1257541 53.22656,11.3425454 C53.22656,13.0715564 53.2285902,16.5300094 53.2285902,16.8858492 C53.2285902,17.331726 53.4549587,17.3797601 53.6807181,17.3797601 C54.0061609,17.3797601 54.9351853,17.3806217 55.2610341,17.3806217 C55.6601735,17.3806217 55.7206737,17.0999563 55.7206737,16.8029205 L55.7206737,7.44209279 L57.6008518,7.44209279 C57.8174753,7.44209279 57.9622293,7.33611628 57.9622293,7.00504738 L57.9622293,5.58621145 C57.9622293,5.2730207 57.7736227,5.18729174 57.5484724,5.18729174 L55.7206737,5.18729174 L55.7206737,4.08121575 C55.7206737,3.69500461 55.6029215,2.43039465 57.2948991,2.54972593 C57.4173208,2.55834191 57.525328,2.57557386 57.6398319,2.57557386 C57.863358,2.57557386 58.0286172,2.43039465 58.0261809,2.15188321 L58.0535888,0.780435152 C58.0535888,0.536818417 57.9746136,0.305479447 57.5764893,0.262830363" id="Fill-1"></path>
                                <path d="M64.5941966,0.833423408 C64.5941966,0.387546623 64.8713203,0.262830363 65.1543317,0.263691961 C65.4797744,0.264553559 66.3103336,0.262830363 66.6359794,0.262830363 C67.0864831,0.262830363 67.1473895,0.654211096 67.1473895,0.870472107 L67.1473895,5.18707634 L69.4212254,5.18707634 C69.697537,5.18643014 69.8211769,5.37770482 69.8211769,5.62412175 L69.8211769,7.01043237 C69.8211769,7.32362311 69.6285099,7.44187739 69.3582888,7.44187739 L67.1473895,7.44187739 L67.1473895,13.104728 C67.1473895,13.6264253 67.1506378,14.919468 68.415053,14.9341152 C68.5378807,14.9354076 68.8956038,14.9407925 69.0553814,14.9435927 C69.3779819,14.9496239 69.5093365,15.2550603 69.5535951,15.4405192 L69.870308,16.9929028 C69.9038064,17.2485819 69.7221026,17.3674823 69.5300446,17.3806217 C69.5292326,17.3808371 69.5280144,17.3808371 69.5269993,17.3808371 C68.7124788,17.416378 68.0506302,17.4071158 67.5014582,17.3155711 C65.5985418,16.9982877 64.6063778,15.7870968 64.6063778,13.4642296 C64.6063778,13.4642296 64.5941966,1.18926324 64.5941966,0.833423408" id="Fill-4"></path>
                                <path d="M61.6777381,5.1870548 L60.1952783,5.1870548 C59.9165304,5.1870548 59.6905679,5.35054295 59.6905679,5.69259722 L59.6905679,16.8436094 C59.6905679,17.1397836 59.9165304,17.3797386 60.1952783,17.3797386 L61.6777381,17.3797386 C61.956486,17.3797386 62.1824484,17.1397836 62.1824484,16.8436094 L62.1824484,5.72318394 C62.1824484,5.35894353 61.956486,5.1870548 61.6777381,5.1870548" id="Fill-6"></path>
                                <path d="M21.3699362,5.1870548 L19.8874764,5.1870548 C19.6087285,5.1870548 19.382766,5.35054295 19.382766,5.69259722 L19.382766,16.8436094 C19.382766,17.1397836 19.6087285,17.3797386 19.8874764,17.3797386 L21.3699362,17.3797386 C21.6488871,17.3797386 21.8748496,17.1397836 21.8748496,16.8436094 L21.8748496,5.72318394 C21.8748496,5.35894353 21.6488871,5.1870548 21.3699362,5.1870548" id="Fill-10"></path>
                                <path d="M49.3654242,17.3805786 L50.4176824,17.3805786 C50.8239275,17.3805786 51.1532277,17.03077 51.1532277,16.5997557 L51.1532277,15.0641733 C51.1532277,14.6327283 50.8239275,14.2833505 50.4176824,14.2833505 L49.3654242,14.2833505 C48.959179,14.2833505 48.6298789,14.6327283 48.6298789,15.0641733 L48.6298789,16.5997557 C48.6298789,17.03077 48.959179,17.3805786 49.3654242,17.3805786" id="Fill-14"></path>
                                <path d="M-2.0302107e-05,5.79969381 C-2.0302107e-05,5.5104124 0.247868416,5.22070019 0.545294274,5.22070019 L1.11537742,5.22070019 C1.38803471,5.22070019 1.5364431,5.35230923 1.61115486,5.58903318 L1.87711245,6.50577308 C2.12479814,6.21627627 3.25217411,4.88855429 5.57656226,4.9576975 C7.23666549,5.00680857 8.2507557,5.70061008 9.07116382,6.87884487 C9.39356127,6.5365752 10.7564417,4.9576975 12.9377,4.9576975 C16.311707,4.9576975 17.2998105,7.53667467 17.2998105,10.6948609 L17.2998105,16.8005726 C17.2998105,17.1165636 17.0766904,17.3795662 16.754699,17.3795662 L15.366644,17.3795662 C15.019681,17.3795662 14.8213294,17.1165636 14.8213294,16.8005726 L14.8213294,10.5895306 C14.8219385,8.9210467 14.3732619,7.61895725 12.7107224,7.50931895 C10.8780513,7.38826448 9.94577856,9.1411849 9.88365412,9.2159285 C9.89319611,9.27257854 9.91410728,9.87892789 9.91410728,10.510479 L9.91410728,16.8005726 C9.91410728,17.1165636 9.66601554,17.3795662 9.39356127,17.3795662 L7.98073769,17.3795662 C7.65854326,17.3795662 7.43542312,17.1165636 7.43542312,16.8005726 L7.43542312,10.5895306 C7.43542312,8.61582573 6.68201195,7.51922732 5.18006212,7.45783849 C4.25692535,7.42014359 3.56502957,7.79881576 3.13137658,8.25180072 C2.60961244,8.79697664 2.47846084,9.49034735 2.47846084,10.0958351 L2.47846084,16.8005726 C2.47846084,17.1165636 2.20580355,17.3795662 1.93314626,17.3795662 L0.545294274,17.3795662 C0.245229142,17.3795662 -2.0302107e-05,17.1191483 -2.0302107e-05,16.8005726 L-2.0302107e-05,5.79969381 Z" id="Fill-16"></path>
                                <path d="M41.1535876,15.0800698 C42.0968235,15.0800698 42.8124727,14.7524473 43.2924145,14.3136787 C43.7465726,13.8983886 44.0038003,13.2351738 44.0038003,12.5064776 L44.0038003,8.96617288 C44.0038003,8.60968685 43.6864784,8.2960653 43.335861,8.03177022 C42.8644461,7.67636119 42.1674748,7.45751539 41.3767078,7.45751539 C39.412682,7.45751539 38.0552832,9.22055958 38.0552832,11.2998101 C38.0552832,13.5315634 39.3194953,15.0800698 41.1535876,15.0800698 M41.1040505,4.95694361 C42.622242,4.91084813 43.4755395,5.31601443 43.9792348,5.58871008 L43.9792348,0.842168624 C43.9792348,0.523592893 44.2244842,0.263175003 44.5245494,0.263175003 L45.9369669,0.263175003 C46.2343928,0.263175003 46.4820785,0.552671813 46.4820785,0.842168624 L46.4820785,16.910534 C46.4820785,17.1683671 46.2839299,17.3792431 46.0409137,17.3792431 L45.2058881,17.3792431 C44.9332308,17.3792431 44.791319,17.2790824 44.7170133,16.9633069 L44.4900358,16.2249177 C44.1369822,16.6320226 42.9742805,17.7396064 40.8066246,17.66874 C37.6027492,17.5638404 35.6620709,15.0225582 35.6620709,11.2834398 C35.6620709,7.73042645 37.9330645,5.05387334 41.1040505,4.95694361" id="Fill-19"></path>
                                <path d="M24.4872231,17.3805786 C24.4872231,17.3805786 26.0787052,17.3799324 26.1211366,17.3799324 C26.5616923,17.3805786 26.5125612,16.9157467 26.5125612,16.9157467 C26.5129673,16.506057 26.5379389,12.0910152 26.5560078,10.4361015 C26.5915364,9.21177129 27.1506564,8.17677711 28.1125702,7.7022522 C29.3229818,7.10516503 31.2165593,7.33413461 31.3278148,9.40692315 C31.3460867,9.72722208 31.3856758,16.7990002 31.3856758,16.8948529 C31.3856758,17.1410545 31.4664782,17.379717 31.8252164,17.379717 C32.0994979,17.379717 33.1880968,17.3799324 33.3815759,17.3799324 C33.8040627,17.3799324 33.8479153,17.0837582 33.8479153,16.805893 C33.8479153,14.8220644 33.8596905,12.53043 33.8422307,10.5466014 C33.8363431,9.87584768 33.8432458,9.18420016 33.7533075,8.52076997 C33.4954707,6.62525514 32.4535666,5.52650273 30.8143746,5.09182672 C29.0578363,4.62570239 27.0253924,5.33307406 26.02795,6.62719373 C26.0003391,6.55158854 25.6478945,5.59155336 25.6070873,5.49570062 C25.5102463,5.26953123 25.4294439,5.18703326 25.2268289,5.18703326 L24.3613501,5.18703326 C24.0669695,5.18703326 24.0754964,5.4297884 24.0722481,5.59650754 C24.0444342,9.16395262 24.0440281,13.3773805 24.0440281,16.9452564 C24.0440281,17.2101977 24.1688861,17.3805786 24.4872231,17.3805786" id="Fill-21"></path>
                            </g>
                        </g>
                    </g>
                </g>
            </g>
        </g>
    </g>
</svg>